<?xml version="1.0" standalone="no"?>
<!DOCTYPE svg PUBLIC "-//W3C//DTD SVG 20010904//EN"
 "http://www.w3.org/TR/2001/REC-SVG-20010904/DTD/svg10.dtd">
<svg version="1.0" xmlns="http://www.w3.org/2000/svg"
 width="400.000000pt" height="400.000000pt" viewBox="0 0 400.000000 400.000000"
 preserveAspectRatio="xMidYMid meet">
<metadata>
Created by potrace 1.14, written by Peter Selinger 2001-2017
</metadata>
<g transform="translate(0.000000,400.000000) scale(0.100000,-0.100000)"
fill="#000000" stroke="none">
<path d="M1060 3986 c0 -8 -5 -16 -11 -18 -7 -2 -7 -12 -1 -28 7 -18 11 -21
15 -10 12 36 14 60 6 66 -5 3 -9 -1 -9 -10z"/>
<path d="M1950 3981 c0 -11 5 -23 11 -26 6 -4 8 -13 5 -21 -3 -8 1 -14 10 -14
12 0 15 6 10 23 -3 12 -6 30 -6 40 0 9 -7 17 -15 17 -8 0 -15 -9 -15 -19z"/>
<path d="M1039 3903 c0 -5 -2 -21 -4 -38 -1 -16 -6 -37 -9 -46 -4 -10 -3 -20
2 -23 5 -3 13 11 17 32 3 20 9 47 12 60 3 13 1 22 -6 22 -6 0 -11 -3 -12 -7z"/>
<path d="M1978 3904 c-4 -5 -3 -16 1 -23 8 -12 7 -45 -3 -94 -14 -68 -32 -127
-38 -127 -4 0 -5 -7 -2 -15 4 -8 1 -15 -6 -15 -6 0 -8 -5 -5 -10 4 -6 -1 -24
-9 -42 -19 -36 -19 -38 -7 -38 12 0 38 51 46 92 3 18 10 42 15 53 15 34 40
127 40 149 -1 30 -25 82 -32 70z"/>
<path d="M1014 3765 c-4 -9 -2 -21 3 -26 7 -7 12 -3 16 10 6 25 -11 39 -19 16z"/>
<path d="M1405 3699 c-98 -23 -112 -31 -181 -96 -70 -66 -126 -116 -210 -188
-39 -33 -56 -72 -27 -61 7 3 13 1 13 -4 0 -13 -72 -134 -82 -138 -4 -2 -8 -9
-8 -15 0 -14 -71 -121 -102 -154 -23 -24 -16 -47 12 -38 10 3 28 8 40 10 29 6
50 24 50 43 0 9 29 76 65 149 36 73 65 136 65 139 0 4 -8 12 -17 19 -15 11
-14 14 8 25 13 7 33 22 44 34 11 12 32 27 48 35 15 8 27 20 27 28 0 7 6 13 14
13 8 0 16 7 20 15 3 8 13 15 21 15 9 0 13 5 10 11 -4 6 2 13 13 16 11 2 25 16
31 29 6 13 17 24 26 24 8 0 15 4 15 9 0 14 77 41 120 41 27 0 47 -7 64 -23 14
-13 23 -27 19 -30 -3 -4 1 -7 9 -7 13 0 16 -11 15 -55 -1 -30 -5 -55 -10 -55
-4 0 -6 -4 -3 -8 3 -5 -2 -21 -10 -36 -7 -16 -14 -35 -14 -42 0 -21 -50 -118
-66 -127 -7 -4 -19 -13 -26 -20 -41 -38 -106 -85 -112 -80 -3 4 -6 1 -6 -6 0
-7 -4 -10 -9 -7 -5 3 -22 -9 -38 -27 -16 -18 -37 -36 -46 -40 -9 -3 -17 -11
-17 -17 0 -5 -7 -10 -16 -10 -8 0 -12 -4 -9 -10 3 -5 1 -10 -5 -10 -7 0 -27
-15 -45 -34 -18 -19 -36 -32 -39 -29 -3 3 -10 -5 -15 -19 -5 -13 -20 -32 -33
-40 -57 -38 -67 -56 -102 -172 -47 -155 -47 -177 2 -201 20 -11 44 -20 53 -21
9 0 22 -5 30 -10 7 -4 20 -9 29 -9 8 -1 41 -10 72 -20 42 -14 63 -16 80 -8 20
8 11 14 -72 40 -102 34 -157 48 -196 52 -20 2 -25 31 -9 54 8 12 21 49 30 82
9 33 22 77 27 98 8 26 25 50 56 75 41 33 110 97 208 192 16 17 34 30 39 30 5
0 19 10 31 21 13 12 32 27 42 33 68 39 162 110 162 121 0 8 20 75 45 150 28
81 43 141 38 149 -4 8 -22 30 -39 49 -18 18 -37 44 -43 55 -13 24 -24 25 -86
11z"/>
<path d="M996 3645 c-3 -8 -3 -21 0 -29 3 -8 1 -17 -5 -21 -14 -8 -14 -55 -1
-55 9 0 12 11 15 65 1 11 4 26 8 32 4 6 3 14 -2 17 -5 3 -11 -1 -15 -9z"/>
<path d="M1852 3469 c-39 -73 -12 -61 33 14 13 22 13 27 2 27 -7 0 -23 -19
-35 -41z"/>
<path d="M947 3482 c-19 -21 -22 -32 -7 -32 10 0 34 39 27 46 -2 2 -11 -4 -20
-14z"/>
<path d="M900 3420 c0 -5 5 -10 10 -10 6 0 10 5 10 10 0 6 -4 10 -10 10 -5 0
-10 -4 -10 -10z"/>
<path d="M887 3393 c-4 -3 -7 -11 -7 -17 0 -6 5 -5 12 2 6 6 9 14 7 17 -3 3
-9 2 -12 -2z"/>
<path d="M1803 3385 c-9 -10 -10 -16 -2 -21 6 -3 15 0 20 7 18 29 4 40 -18 14z"/>
<path d="M855 3350 c-3 -5 -2 -10 4 -10 5 0 13 5 16 10 3 6 2 10 -4 10 -5 0
-13 -4 -16 -10z"/>
<path d="M1780 3334 c0 -8 5 -12 10 -9 6 4 8 11 5 16 -9 14 -15 11 -15 -7z"/>
<path d="M825 3289 c-4 -6 -5 -12 -2 -15 2 -3 7 2 10 11 7 17 1 20 -8 4z"/>
<path d="M920 3290 c-9 -6 -10 -10 -3 -10 6 0 15 5 18 10 8 12 4 12 -15 0z"/>
<path d="M1737 3223 c-20 -77 -20 -83 -9 -83 5 0 14 21 21 48 20 78 24 102 14
102 -5 0 -16 -30 -26 -67z"/>
<path d="M896 3254 c-5 -14 -4 -15 9 -4 17 14 19 20 6 20 -5 0 -12 -7 -15 -16z"/>
<path d="M870 3219 c0 -5 5 -7 10 -4 6 3 10 8 10 11 0 2 -4 4 -10 4 -5 0 -10
-5 -10 -11z"/>
<path d="M750 3185 c-7 -9 -8 -15 -2 -15 5 0 12 7 16 15 3 8 4 15 2 15 -2 0
-9 -7 -16 -15z"/>
<path d="M823 3163 c-4 -10 -11 -22 -17 -26 -7 -5 -3 -7 8 -5 20 3 43 48 25
48 -5 0 -13 -8 -16 -17z"/>
<path d="M1700 3130 c0 -5 7 -10 16 -10 8 0 12 5 9 10 -3 6 -10 10 -16 10 -5
0 -9 -4 -9 -10z"/>
<path d="M765 3078 c-15 -18 -36 -51 -46 -73 -28 -61 -69 -170 -69 -183 0 -7
-4 -20 -9 -30 -21 -43 -51 -113 -51 -122 0 -5 30 -39 68 -77 37 -37 116 -118
175 -178 59 -61 151 -150 203 -199 51 -49 94 -93 94 -99 0 -5 20 -27 45 -49
25 -22 45 -45 45 -52 0 -15 32 -46 47 -46 6 0 28 28 47 63 48 82 60 101 67
107 4 3 9 14 13 25 5 16 26 24 113 43 60 13 131 30 159 38 28 8 57 14 64 14 7
0 31 8 54 19 23 10 66 29 96 43 30 14 70 29 88 33 48 10 49 29 6 67 -21 18
-49 45 -63 61 -13 15 -30 27 -36 27 -6 0 -36 27 -66 60 -30 33 -64 67 -76 75
-17 11 -254 56 -290 55 -12 -1 24 -21 45 -25 9 -2 40 -9 67 -15 28 -6 60 -14
71 -16 47 -9 91 -35 140 -81 82 -78 142 -131 160 -141 24 -14 10 -45 -28 -60
-18 -7 -46 -19 -61 -27 -16 -8 -36 -15 -46 -15 -9 0 -21 -4 -26 -9 -13 -11
-127 -41 -185 -47 -25 -3 -49 -9 -54 -14 -5 -5 -14 -6 -21 -4 -7 3 -16 1 -20
-5 -3 -6 -17 -11 -31 -11 -13 0 -24 -4 -24 -10 0 -5 -8 -10 -18 -10 -20 0 -72
-55 -72 -76 0 -8 -4 -14 -10 -14 -5 0 -19 -18 -30 -39 -11 -22 -24 -42 -29
-45 -10 -6 -101 79 -101 94 0 5 -9 11 -20 15 -11 3 -19 9 -19 13 3 20 -3 32
-16 32 -8 0 -15 7 -15 15 0 8 -5 15 -11 15 -6 0 -35 24 -64 53 -29 28 -82 81
-119 116 -36 35 -66 68 -66 72 0 5 -7 9 -15 9 -8 0 -15 5 -15 10 0 6 -7 10
-16 10 -8 0 -13 4 -10 8 2 4 -16 28 -41 52 -25 25 -59 65 -75 88 -29 42 -30
46 -18 88 7 25 17 47 21 50 5 3 9 13 9 23 0 16 16 60 50 136 5 11 14 40 21 65
6 25 14 47 18 50 11 9 33 52 28 56 -3 3 -17 -10 -32 -28z"/>
<path d="M1695 3099 c-4 -6 -11 -25 -15 -43 -4 -17 -11 -40 -16 -50 -5 -13 -4
-17 4 -12 6 4 18 30 27 58 15 50 15 71 0 47z"/>
<path d="M3416 2935 c-3 -8 -1 -15 4 -15 6 0 10 7 10 15 0 8 -2 15 -4 15 -2 0
-6 -7 -10 -15z"/>
<path d="M1700 2914 c14 -16 35 -39 48 -51 12 -12 22 -24 22 -26 0 -6 129
-137 135 -137 3 0 1 8 -4 18 -12 22 -92 102 -103 102 -4 0 -8 5 -8 11 0 14
-69 87 -95 101 -17 9 -16 6 5 -18z"/>
<path d="M568 2860 c-19 -18 -26 -100 -8 -100 6 0 10 16 10 36 0 19 5 44 11
56 14 26 8 30 -13 8z"/>
<path d="M3430 2840 c0 -5 5 -10 10 -10 6 0 10 5 10 10 0 6 -4 10 -10 10 -5 0
-10 -4 -10 -10z"/>
<path d="M2168 2711 c-27 -4 -52 -11 -57 -16 -7 -7 54 -11 165 -12 103 -1 174
3 174 8 0 6 -23 8 -52 5 -29 -2 -57 0 -63 4 -15 12 -115 19 -167 11z"/>
<path d="M1930 2690 c0 -5 8 -10 18 -11 9 0 37 -2 62 -4 51 -4 80 2 80 16 0 5
-36 9 -80 9 -47 0 -80 -4 -80 -10z"/>
<path d="M3430 2682 c0 -5 9 -20 21 -33 l21 -24 -4 30 c-2 19 -9 31 -20 33
-10 2 -18 -1 -18 -6z"/>
<path d="M1307 2662 c-10 -10 -14 -22 -10 -25 3 -4 1 -7 -5 -7 -7 0 -12 -10
-12 -23 0 -28 38 -52 69 -42 11 3 21 2 21 -3 0 -5 14 -7 30 -4 17 2 30 0 30
-5 0 -4 20 -8 45 -8 26 0 44 -4 41 -10 -2 -6 16 -11 40 -12 39 -2 46 1 59 26
17 34 3 54 -32 45 -23 -6 -143 26 -143 38 0 4 -8 8 -18 8 -10 0 -26 6 -37 14
-37 25 -61 27 -78 8z"/>
<path d="M2512 2637 c-6 -7 -15 -25 -21 -40 -12 -32 -36 -37 -28 -6 3 11 0 22
-6 25 -17 6 -100 -19 -104 -32 -4 -13 28 -24 69 -24 15 0 30 -5 33 -11 13 -20
60 -30 167 -35 59 -3 127 -9 152 -12 l45 -7 -20 -42 c-11 -24 -22 -43 -25 -43
-3 0 -19 14 -36 30 -16 17 -38 30 -49 30 -19 0 -19 -1 0 -39 11 -21 26 -45 34
-52 7 -8 19 -28 26 -46 23 -57 53 -50 65 17 3 19 13 48 21 64 8 15 15 34 15
42 0 7 10 29 21 49 13 21 18 40 13 45 -5 5 -45 11 -89 13 -67 4 -94 11 -169
46 -99 46 -99 46 -114 28z"/>
<path d="M558 2593 c-3 -4 -4 -35 -4 -68 1 -44 8 -74 26 -108 14 -26 28 -47
32 -47 12 0 10 7 -13 51 -12 24 -22 69 -25 107 -5 67 -8 80 -16 65z"/>
<path d="M2925 2582 c-3 -3 9 -14 26 -24 19 -12 29 -24 25 -33 -3 -8 -2 -17 3
-19 4 -3 6 -24 5 -48 -2 -24 -3 -59 -3 -79 -1 -33 -5 -37 -53 -59 -62 -29
-118 -70 -94 -70 9 0 16 4 16 9 0 5 15 13 33 16 17 4 41 15 52 25 11 10 31 20
45 22 l25 3 0 118 c0 67 -4 122 -10 127 -13 10 -63 19 -70 12z"/>
<path d="M1312 2526 c5 -25 -1 -29 -98 -76 -56 -28 -107 -50 -113 -50 -6 0
-11 -6 -11 -14 0 -14 104 -28 195 -27 22 1 68 -2 102 -5 60 -6 62 -6 76 22 8
16 25 38 37 49 24 22 54 74 47 82 -16 15 -127 -66 -120 -87 4 -13 -95 -9 -113
5 -18 14 -18 14 5 15 16 0 21 4 18 15 -4 8 -2 17 3 20 18 11 11 54 -11 66 -20
10 -21 9 -17 -15z"/>
<path d="M1237 2533 c-4 -3 -7 -11 -7 -17 0 -6 5 -5 12 2 6 6 9 14 7 17 -3 3
-9 2 -12 -2z"/>
<path d="M1418 2483 c7 -3 16 -2 19 1 4 3 -2 6 -13 5 -11 0 -14 -3 -6 -6z"/>
<path d="M1360 2470 c0 -6 7 -10 15 -10 8 0 15 2 15 4 0 2 -7 6 -15 10 -8 3
-15 1 -15 -4z"/>
<path d="M620 2345 c0 -8 3 -15 8 -15 4 0 18 -20 31 -45 13 -25 27 -45 31 -45
5 0 -6 27 -23 60 -31 59 -47 75 -47 45z"/>
<path d="M2435 2268 c-11 -6 -22 -14 -25 -18 -6 -8 -81 -30 -127 -37 -18 -3
-33 -10 -33 -15 0 -10 9 -9 85 7 40 9 135 55 135 66 0 12 -11 11 -35 -3z"/>
<path d="M2540 2260 c14 -11 43 -25 65 -31 22 -5 53 -19 68 -30 l28 -20 41 21
c22 11 47 28 55 36 14 13 12 14 -13 8 -16 -4 -34 -10 -39 -15 -13 -9 -86 -4
-112 9 -10 5 -33 16 -51 25 -48 24 -74 22 -42 -3z"/>
<path d="M695 2220 c-4 -6 -2 -10 4 -10 6 0 13 -11 17 -25 3 -14 15 -30 26
-36 16 -9 19 -8 12 3 -5 7 -9 18 -10 24 -3 19 -43 54 -49 44z"/>
<path d="M2198 2133 c-9 -16 -8 -263 1 -263 15 0 17 20 15 143 -2 111 -6 140
-16 120z"/>
<path d="M748 2093 c-5 -21 0 -43 11 -43 8 0 8 46 0 55 -4 3 -9 -2 -11 -12z"/>
<path d="M738 2018 c-6 -17 3 -58 12 -58 4 0 10 16 12 35 3 23 0 35 -8 35 -7
0 -14 -5 -16 -12z"/>
<path d="M734 1939 c-9 -16 -16 -74 -7 -65 12 12 31 76 22 76 -4 0 -11 -5 -15
-11z"/>
<path d="M713 1835 c-3 -9 -3 -18 0 -21 9 -9 27 6 27 22 0 19 -19 18 -27 -1z"/>
<path d="M2205 1840 c3 -5 8 -10 11 -10 2 0 4 5 4 10 0 6 -5 10 -11 10 -5 0
-7 -4 -4 -10z"/>
<path d="M2210 1815 c0 -19 43 -85 51 -79 7 4 7 9 2 13 -5 3 -15 21 -22 39
-11 27 -31 44 -31 27z"/>
<path d="M720 1778 c0 -15 -33 -57 -95 -122 -52 -55 -95 -107 -95 -117 0 -10
-4 -20 -9 -23 -5 -3 -12 -22 -16 -43 -4 -20 -18 -65 -32 -99 -13 -35 -26 -71
-28 -81 -2 -10 -4 -18 -5 -18 -2 0 -3 -59 -1 -132 1 -50 4 -63 17 -63 8 0 12
4 9 10 -16 26 -6 212 14 245 3 6 7 19 8 30 2 11 8 24 13 29 4 4 6 15 3 22 -3
8 0 14 5 14 6 0 16 25 23 55 7 30 20 63 31 74 10 11 18 24 18 28 0 4 14 19 30
32 17 13 30 26 30 30 0 4 20 29 45 54 29 30 45 56 45 72 0 14 -2 25 -5 25 -3
0 -5 -10 -5 -22z"/>
<path d="M2274 1698 c8 -13 15 -26 16 -30 1 -14 40 -73 40 -62 0 18 -30 86
-45 100 -21 21 -27 16 -11 -8z"/>
<path d="M2410 1534 c44 -14 170 -46 259 -65 24 -5 49 -13 55 -18 16 -13 87
-34 93 -28 7 8 -99 55 -147 66 -22 5 -40 7 -40 4 0 -3 -6 -1 -12 5 -7 6 -31
13 -53 17 -22 4 -59 13 -83 21 -23 8 -59 14 -80 13 l-37 0 45 -15z"/>
<path d="M1058 1435 c-20 -14 -41 -25 -46 -25 -5 0 -17 -9 -27 -20 -10 -11
-22 -20 -28 -20 -22 0 -176 -96 -177 -110 0 -8 -10 -35 -22 -60 -12 -25 -22
-48 -22 -51 -1 -3 -12 -29 -26 -58 -24 -51 -24 -53 -6 -67 25 -18 36 -9 36 26
0 47 76 199 104 210 13 5 27 14 31 19 3 6 17 11 31 11 13 0 24 6 24 13 0 6 23
23 51 37 28 14 53 30 56 36 2 6 16 12 30 12 14 0 29 6 34 13 7 11 31 11 146
-4 76 -10 155 -20 176 -22 20 -2 45 -9 56 -14 10 -6 33 -13 52 -16 19 -2 70
-11 114 -19 44 -8 141 -25 215 -37 138 -22 227 -44 245 -61 7 -6 3 -14 -9 -24
-23 -16 -40 -19 -31 -4 14 22 -16 37 -73 38 -31 0 -97 9 -147 20 -49 10 -99
19 -110 19 -11 0 -94 2 -184 3 l-163 2 -74 -50 -74 -51 -102 10 c-57 6 -110
13 -118 16 -8 3 -31 6 -50 5 -19 0 -43 4 -52 9 -22 12 -58 -5 -58 -26 0 -8 -5
-15 -11 -15 -5 0 -8 -4 -5 -9 3 -4 -3 -16 -14 -26 -11 -10 -20 -24 -20 -32 0
-8 -13 -28 -30 -46 -16 -18 -30 -37 -30 -43 0 -13 43 -34 70 -34 10 0 22 -4
25 -10 3 -5 15 -10 25 -10 10 0 25 -6 32 -13 13 -13 201 -87 221 -87 6 0 28
12 48 26 l38 26 28 -21 c42 -30 79 -36 87 -14 8 21 -25 53 -55 53 -11 0 -38
14 -61 30 -22 16 -52 30 -65 30 -30 0 -29 14 3 39 25 20 26 21 5 21 -17 0 -21
6 -21 29 0 38 43 55 80 31 12 -7 10 -12 -10 -30 l-24 -21 25 -22 c52 -48 80
-40 72 22 -4 31 0 43 23 68 16 17 56 44 89 59 58 28 65 29 220 29 130 0 169
-3 206 -18 28 -11 79 -19 126 -20 44 -1 86 -7 94 -13 17 -13 83 -9 279 15 64
8 81 6 123 -10 47 -19 78 -18 48 0 -8 5 -10 14 -6 22 6 8 4 11 -6 7 -10 -4
-15 1 -16 13 -1 14 8 19 43 25 59 9 194 -1 269 -20 33 -8 89 -17 125 -21 76
-7 208 -33 231 -46 9 -4 19 -5 23 -2 8 8 -132 57 -223 79 -35 8 -100 17 -144
20 -44 3 -88 9 -98 15 -10 5 -33 9 -51 10 -132 2 -185 1 -273 -3 -187 -11
-218 -10 -315 6 -19 4 -75 12 -125 20 -93 14 -232 45 -345 76 -91 26 -190 48
-220 48 -14 1 -70 8 -125 16 -130 20 -124 20 -167 -9z m-18 -344 l25 -20 -25
5 c-43 10 -69 26 -63 40 5 15 19 9 63 -25z m-97 17 c-2 -5 1 -8 6 -8 20 0 11
-15 -15 -27 -22 -10 -25 -10 -20 4 4 8 2 21 -3 27 -6 8 -2 11 14 11 13 0 21
-3 18 -7z m67 -45 c0 -5 -4 -14 -9 -22 -7 -11 -11 -9 -20 8 -10 18 -9 21 9 21
11 0 20 -3 20 -7z m-140 -19 c0 -2 -7 -4 -15 -4 -8 0 -15 4 -15 10 0 5 7 7 15
4 8 -4 15 -8 15 -10z m185 -2 c-3 -3 -11 0 -18 7 -9 10 -8 11 6 5 10 -3 15 -9
12 -12z m-8 -18 c-3 -3 -12 -4 -19 -1 -8 3 -5 6 6 6 11 1 17 -2 13 -5z m-27
-29 c8 -9 9 -15 2 -15 -6 0 -13 4 -17 10 -3 5 -12 7 -20 3 -8 -3 -15 0 -15 6
0 16 36 13 50 -4z m47 9 c-3 -3 -12 -4 -19 -1 -8 3 -5 6 6 6 11 1 17 -2 13 -5z"/>
<path d="M203 1425 c-18 -16 -22 -23 -10 -19 19 7 50 -26 52 -56 1 -8 2 -25 3
-37 1 -13 6 -23 11 -23 14 0 19 48 7 67 -6 10 -11 35 -11 56 1 44 -12 47 -52
12z"/>
<path d="M0 1429 c0 -5 2 -9 5 -9 2 0 27 -9 56 -20 32 -13 49 -16 47 -8 -5 14
-108 50 -108 37z"/>
<path d="M2854 1395 c11 -8 24 -15 30 -15 5 0 1 7 -10 15 -10 8 -23 14 -29 14
-5 0 -1 -6 9 -14z"/>
<path d="M2936 1351 c5 -5 20 -12 34 -16 22 -7 23 -6 8 9 -9 9 -25 16 -34 16
-11 0 -14 -3 -8 -9z"/>
<path d="M3014 1315 c8 -8 30 -18 48 -22 18 -3 35 -10 38 -14 3 -4 23 -10 45
-13 65 -8 229 -36 248 -42 9 -3 15 -9 12 -14 -7 -12 10 -21 28 -14 8 3 13 13
10 24 -3 13 -18 20 -51 25 -75 10 -98 14 -175 31 -39 8 -85 17 -102 18 -16 2
-47 11 -69 20 -48 20 -51 20 -32 1z"/>
<path d="M250 1273 c0 -6 -3 -18 -6 -27 -3 -9 -1 -16 5 -16 17 0 25 30 12 43
-8 8 -11 8 -11 0z"/>
<path d="M2540 1206 c0 -25 54 -46 143 -55 77 -8 107 -2 107 19 0 17 -81 40
-162 46 -77 6 -88 4 -88 -10z"/>
<path d="M239 1203 c-1 -9 -5 -34 -19 -112 -6 -30 -10 -64 -10 -75 1 -18 3
-17 16 7 9 16 13 36 10 44 -4 9 -2 21 3 27 5 6 9 22 9 36 0 14 4 37 7 53 5 17
3 27 -4 27 -6 0 -11 -3 -12 -7z"/>
<path d="M3450 1174 c8 -8 23 -20 34 -26 19 -10 18 -8 -3 16 -26 27 -53 37
-31 10z"/>
<path d="M1578 1173 c-10 -3 -18 -10 -19 -16 0 -7 -2 -19 -3 -27 -2 -8 -6 -39
-10 -69 -4 -29 -9 -57 -11 -61 -6 -10 35 -54 58 -63 14 -5 17 -1 17 23 0 16
-4 31 -9 34 -9 6 -7 133 3 157 8 19 -1 27 -26 22z"/>
<path d="M2855 1153 c-34 -9 -45 -24 -45 -64 0 -36 2 -39 28 -39 15 0 38 7 51
16 30 21 69 14 201 -36 57 -22 110 -40 117 -40 8 0 24 -7 37 -16 23 -14 27
-13 70 18 42 30 45 36 43 72 -2 35 -6 41 -32 48 -16 4 -86 9 -155 11 -69 1
-132 7 -140 12 -8 5 -26 11 -40 12 -14 1 -45 4 -70 7 -25 2 -54 2 -65 -1z
m393 -98 c2 -28 -5 -31 -31 -11 -18 14 -18 15 0 25 26 15 28 14 31 -14z"/>
<path d="M2489 1118 c-3 -97 -7 -117 -28 -146 -12 -18 -34 -35 -49 -39 -15 -4
-106 -7 -202 -6 -300 3 -323 3 -410 -1 -115 -5 -186 -16 -169 -27 8 -5 34 -9
60 -9 25 0 50 -5 57 -12 8 -8 15 -8 26 1 10 8 61 11 168 10 457 -5 461 -5 502
15 21 11 41 27 43 37 7 26 31 31 66 14 35 -18 67 -20 67 -4 0 6 -7 9 -15 5 -8
-3 -15 -1 -15 4 0 5 -6 7 -12 5 -18 -6 -49 20 -49 42 0 30 8 87 16 105 4 11 0
20 -14 27 -32 18 -41 13 -42 -21z"/>
<path d="M3532 1080 c12 -16 26 -30 31 -30 4 0 -1 14 -13 30 -12 17 -26 30
-31 30 -5 0 0 -13 13 -30z"/>
<path d="M3415 1070 c-3 -5 -1 -10 4 -10 6 0 11 5 11 10 0 6 -2 10 -4 10 -3 0
-8 -4 -11 -10z"/>
<path d="M448 1064 c-5 -4 -8 -21 -8 -38 0 -21 3 -27 11 -19 6 6 9 23 7 38 -2
15 -6 23 -10 19z"/>
<path d="M3570 1030 c0 -6 7 -13 15 -16 8 -4 15 -17 15 -31 0 -19 -23 -48 -87
-109 -47 -46 -90 -84 -95 -84 -4 0 -8 -3 -8 -8 0 -4 -22 -18 -50 -31 -27 -13
-50 -28 -50 -32 0 -5 -9 -9 -20 -9 -11 0 -20 -4 -20 -10 0 -5 -19 -15 -42 -21
-24 -7 -47 -16 -52 -21 -6 -4 -20 -8 -32 -8 -13 0 -26 -5 -29 -10 -4 -6 -15
-8 -25 -5 -10 3 -21 1 -25 -5 -3 -5 -15 -10 -26 -10 -25 0 -94 -28 -87 -36 7
-6 132 26 232 60 98 33 236 116 304 184 32 32 70 66 85 76 45 31 67 53 67 65
0 13 -50 71 -62 71 -4 0 -8 -5 -8 -10z"/>
<path d="M2710 980 c0 -13 11 -13 30 0 12 8 11 10 -7 10 -13 0 -23 -4 -23 -10z"/>
<path d="M2646 967 c-17 -12 -17 -14 -2 -20 21 -8 46 2 46 19 0 18 -21 18 -44
1z"/>
<path d="M775 953 c6 -4 11 -15 13 -23 1 -8 21 -32 42 -53 22 -21 40 -40 40
-43 0 -4 20 -29 45 -56 25 -28 45 -54 45 -58 0 -11 40 -24 145 -50 50 -12 116
-28 148 -36 l57 -15 98 37 c53 20 126 48 162 62 48 19 90 26 160 29 52 2 142
6 200 8 130 5 414 32 495 46 33 6 77 19 97 30 22 11 57 19 88 19 30 0 64 7 85
19 28 15 41 17 72 8 31 -8 56 -5 128 13 98 24 171 31 168 15 -1 -5 -5 -18 -8
-27 -15 -37 96 -16 171 32 l46 28 -40 -2 c-22 -2 -45 -7 -51 -11 -7 -3 -26
-11 -43 -16 -26 -7 -34 -5 -49 12 -25 29 -75 33 -161 14 -41 -9 -110 -18 -154
-19 -43 -2 -91 -8 -105 -14 -14 -5 -52 -13 -85 -17 -32 -4 -62 -12 -65 -17 -8
-12 -129 -35 -219 -42 -146 -11 -365 -24 -385 -24 -11 1 -47 -2 -80 -6 -33 -3
-95 -8 -137 -11 -42 -2 -93 -11 -114 -20 -20 -8 -43 -15 -51 -15 -13 0 -89
-30 -124 -50 -33 -18 -138 -31 -158 -20 -11 5 -33 10 -49 10 -16 0 -32 3 -36
8 -4 4 -11 7 -14 8 -56 8 -92 18 -92 26 0 5 -4 6 -10 3 -20 -13 -90 40 -90 68
0 8 -9 17 -20 20 -11 3 -24 17 -30 31 -5 15 -26 36 -45 47 -19 12 -35 25 -35
29 0 4 -8 10 -17 14 -10 3 -25 9 -33 12 -9 3 -11 2 -5 -3z"/>
<path d="M280 941 c0 -13 30 -18 73 -13 56 6 44 22 -18 22 -30 0 -55 -4 -55
-9z"/>
<path d="M1423 933 c9 -2 23 -2 30 0 6 3 -1 5 -18 5 -16 0 -22 -2 -12 -5z"/>
<path d="M2859 550 c-24 -16 -49 -30 -55 -30 -6 0 -17 -7 -24 -15 -7 -8 -16
-12 -21 -9 -5 3 -9 0 -9 -5 0 -18 27 -12 66 14 21 14 48 28 61 31 13 4 23 10
23 15 0 5 6 9 14 9 8 0 18 5 21 10 13 21 -34 9 -76 -20z"/>
<path d="M2690 398 c0 -13 -3 -33 -6 -45 -5 -17 -2 -23 10 -23 12 0 14 7 10
29 -4 16 -1 32 5 35 12 8 5 26 -10 26 -5 0 -9 -10 -9 -22z"/>
<path d="M2684 288 c5 -46 -8 -73 -43 -88 -17 -7 -31 -16 -31 -21 0 -5 -11 -9
-24 -9 -13 0 -26 -3 -28 -7 -1 -5 -37 -25 -78 -45 -99 -48 -308 -80 -470 -71
-209 11 -514 5 -553 -12 -36 -15 -57 -35 -37 -35 6 0 22 7 35 16 21 14 59 15
267 13 417 -4 497 -3 513 11 6 5 20 9 30 10 97 2 214 30 235 55 7 8 17 15 22
15 5 0 41 15 81 34 40 19 80 37 89 40 14 4 17 16 15 66 -1 40 -6 60 -14 60 -8
0 -11 -11 -9 -32z"/>
<path d="M0 15 c0 -8 7 -15 16 -15 14 0 14 3 4 15 -16 19 -20 19 -20 0z"/>
</g>
</svg>
